# xmcd
#
# Track frame offsets:
#	150
#	22785
#	48077
#	65777
#	84010
#	106082
#	121854
#	138690
#	160347
#	180030
#	200027
#	216982
#
# Disc length: 3105 seconds
#
# Revision: 0
# Processed by: cddbd v1.5PL3 Copyright (c) Steve Scherf et al.
# Submitted via: dBpowerAMP V4.0
#
DISCID=980c1f0c
DTITLE=M.C. Blvd - Love On My Mind
DYEAR=1900
DGENRE=Blues
TTITLE0=So
TTITLE1=Make It With You
TTITLE2=You Know That I Know
TTITLE3=The Party's Over
TTITLE4=You've Got A Friend
TTITLE5=Give Me Your Love
TTITLE6=I Called You
TTITLE7=Queiro Hacerte El Amor
TTITLE8=Querida Madre
TTITLE9=Llamame
TTITLE10=Oye Morena
TTITLE11=Si Se Puede
EXTD=
EXTT0=
EXTT1=
EXTT2=
EXTT3=
EXTT4=
EXTT5=
EXTT6=
EXTT7=
EXTT8=
EXTT9=
EXTT10=
EXTT11=
PLAYORDER=
